<mxfile host="app.diagrams.net" agent="Mozilla/5.0 (Macintosh; Intel Mac OS X 10_15_7) AppleWebKit/537.36 (KHTML, like Gecko) Chrome/129.0.0.0 Safari/537.36" version="24.8.3" pages="2">
  <diagram name="Entities" id="xmdU29csq700mIFAjij1">
    <mxGraphModel dx="951" dy="682" grid="1" gridSize="10" guides="1" tooltips="1" connect="1" arrows="1" fold="1" page="1" pageScale="1" pageWidth="850" pageHeight="1100" math="0" shadow="0">
      <root>
        <mxCell id="0" />
        <mxCell id="1" parent="0" />
        <mxCell id="oz03-mQIutruv5uPioV6-1" value="" style="rounded=1;whiteSpace=wrap;html=1;arcSize=6;" parent="1" vertex="1">
          <mxGeometry x="880" y="740" width="240" height="220" as="geometry" />
        </mxCell>
        <mxCell id="oz03-mQIutruv5uPioV6-2" value="" style="rounded=1;whiteSpace=wrap;html=1;arcSize=6;" parent="1" vertex="1">
          <mxGeometry x="880" y="440" width="510" height="260" as="geometry" />
        </mxCell>
        <mxCell id="oz03-mQIutruv5uPioV6-3" value="" style="rounded=1;whiteSpace=wrap;html=1;arcSize=6;" parent="1" vertex="1">
          <mxGeometry x="140" y="420" width="630" height="390" as="geometry" />
        </mxCell>
        <mxCell id="oz03-mQIutruv5uPioV6-4" value="" style="rounded=1;whiteSpace=wrap;html=1;arcSize=6;" parent="1" vertex="1">
          <mxGeometry x="910" y="40" width="420" height="342" as="geometry" />
        </mxCell>
        <mxCell id="oz03-mQIutruv5uPioV6-5" value="" style="rounded=1;whiteSpace=wrap;html=1;arcSize=6;" parent="1" vertex="1">
          <mxGeometry x="150" y="72" width="480" height="294" as="geometry" />
        </mxCell>
        <mxCell id="oz03-mQIutruv5uPioV6-6" value="" style="edgeStyle=orthogonalEdgeStyle;rounded=1;orthogonalLoop=1;jettySize=auto;html=1;endArrow=ERmany;endFill=0;exitX=1;exitY=0.5;exitDx=0;exitDy=0;entryX=0;entryY=0.5;entryDx=0;entryDy=0;fontStyle=1" parent="1" source="oz03-mQIutruv5uPioV6-13" target="oz03-mQIutruv5uPioV6-15" edge="1">
          <mxGeometry relative="1" as="geometry" />
        </mxCell>
        <mxCell id="oz03-mQIutruv5uPioV6-7" value="User" style="swimlane;fontStyle=1;childLayout=stackLayout;horizontal=1;startSize=30;horizontalStack=0;resizeParent=1;resizeParentMax=0;resizeLast=0;collapsible=1;marginBottom=0;whiteSpace=wrap;html=1;rounded=1;" parent="1" vertex="1">
          <mxGeometry x="200" y="136" width="140" height="210" as="geometry">
            <mxRectangle x="350" y="290" width="70" height="30" as="alternateBounds" />
          </mxGeometry>
        </mxCell>
        <mxCell id="oz03-mQIutruv5uPioV6-8" value="id" style="text;strokeColor=none;fillColor=none;align=left;verticalAlign=middle;spacingLeft=4;spacingRight=4;overflow=hidden;points=[[0,0.5],[1,0.5]];portConstraint=eastwest;rotatable=0;whiteSpace=wrap;html=1;fontStyle=1;rounded=1;" parent="oz03-mQIutruv5uPioV6-7" vertex="1">
          <mxGeometry y="30" width="140" height="30" as="geometry" />
        </mxCell>
        <mxCell id="oz03-mQIutruv5uPioV6-9" value="firstName" style="text;strokeColor=none;fillColor=none;align=left;verticalAlign=middle;spacingLeft=4;spacingRight=4;overflow=hidden;points=[[0,0.5],[1,0.5]];portConstraint=eastwest;rotatable=0;whiteSpace=wrap;html=1;fontStyle=1;rounded=1;" parent="oz03-mQIutruv5uPioV6-7" vertex="1">
          <mxGeometry y="60" width="140" height="30" as="geometry" />
        </mxCell>
        <mxCell id="oz03-mQIutruv5uPioV6-10" value="lastName" style="text;strokeColor=none;fillColor=none;align=left;verticalAlign=middle;spacingLeft=4;spacingRight=4;overflow=hidden;points=[[0,0.5],[1,0.5]];portConstraint=eastwest;rotatable=0;whiteSpace=wrap;html=1;fontStyle=1;rounded=1;" parent="oz03-mQIutruv5uPioV6-7" vertex="1">
          <mxGeometry y="90" width="140" height="30" as="geometry" />
        </mxCell>
        <mxCell id="oz03-mQIutruv5uPioV6-11" value="email" style="text;strokeColor=none;fillColor=none;align=left;verticalAlign=middle;spacingLeft=4;spacingRight=4;overflow=hidden;points=[[0,0.5],[1,0.5]];portConstraint=eastwest;rotatable=0;whiteSpace=wrap;html=1;fontStyle=1;rounded=1;" parent="oz03-mQIutruv5uPioV6-7" vertex="1">
          <mxGeometry y="120" width="140" height="30" as="geometry" />
        </mxCell>
        <mxCell id="oz03-mQIutruv5uPioV6-12" value="password" style="text;strokeColor=none;fillColor=none;align=left;verticalAlign=middle;spacingLeft=4;spacingRight=4;overflow=hidden;points=[[0,0.5],[1,0.5]];portConstraint=eastwest;rotatable=0;whiteSpace=wrap;html=1;fontStyle=1;rounded=1;" parent="oz03-mQIutruv5uPioV6-7" vertex="1">
          <mxGeometry y="150" width="140" height="30" as="geometry" />
        </mxCell>
        <mxCell id="oz03-mQIutruv5uPioV6-13" value="addressId" style="text;strokeColor=none;fillColor=none;align=left;verticalAlign=middle;spacingLeft=4;spacingRight=4;overflow=hidden;points=[[0,0.5],[1,0.5]];portConstraint=eastwest;rotatable=0;whiteSpace=wrap;html=1;fontStyle=1;rounded=1;" parent="oz03-mQIutruv5uPioV6-7" vertex="1">
          <mxGeometry y="180" width="140" height="30" as="geometry" />
        </mxCell>
        <mxCell id="oz03-mQIutruv5uPioV6-14" value="Address" style="swimlane;fontStyle=1;childLayout=stackLayout;horizontal=1;startSize=30;horizontalStack=0;resizeParent=1;resizeParentMax=0;resizeLast=0;collapsible=1;marginBottom=0;whiteSpace=wrap;html=1;rounded=1;" parent="1" vertex="1">
          <mxGeometry x="435" y="136" width="140" height="210" as="geometry">
            <mxRectangle x="570" y="290" width="80" height="30" as="alternateBounds" />
          </mxGeometry>
        </mxCell>
        <mxCell id="oz03-mQIutruv5uPioV6-15" value="id" style="text;strokeColor=none;fillColor=none;align=left;verticalAlign=middle;spacingLeft=4;spacingRight=4;overflow=hidden;points=[[0,0.5],[1,0.5]];portConstraint=eastwest;rotatable=0;whiteSpace=wrap;html=1;fontStyle=1;rounded=1;" parent="oz03-mQIutruv5uPioV6-14" vertex="1">
          <mxGeometry y="30" width="140" height="30" as="geometry" />
        </mxCell>
        <mxCell id="oz03-mQIutruv5uPioV6-16" value="Address Line 1" style="text;strokeColor=none;fillColor=none;align=left;verticalAlign=middle;spacingLeft=4;spacingRight=4;overflow=hidden;points=[[0,0.5],[1,0.5]];portConstraint=eastwest;rotatable=0;whiteSpace=wrap;html=1;fontStyle=1;rounded=1;" parent="oz03-mQIutruv5uPioV6-14" vertex="1">
          <mxGeometry y="60" width="140" height="30" as="geometry" />
        </mxCell>
        <mxCell id="oz03-mQIutruv5uPioV6-17" value="Address Line 2" style="text;strokeColor=none;fillColor=none;align=left;verticalAlign=middle;spacingLeft=4;spacingRight=4;overflow=hidden;points=[[0,0.5],[1,0.5]];portConstraint=eastwest;rotatable=0;whiteSpace=wrap;html=1;fontStyle=1;rounded=1;" parent="oz03-mQIutruv5uPioV6-14" vertex="1">
          <mxGeometry y="90" width="140" height="30" as="geometry" />
        </mxCell>
        <mxCell id="oz03-mQIutruv5uPioV6-18" value="City" style="text;strokeColor=none;fillColor=none;align=left;verticalAlign=middle;spacingLeft=4;spacingRight=4;overflow=hidden;points=[[0,0.5],[1,0.5]];portConstraint=eastwest;rotatable=0;whiteSpace=wrap;html=1;fontStyle=1;rounded=1;" parent="oz03-mQIutruv5uPioV6-14" vertex="1">
          <mxGeometry y="120" width="140" height="30" as="geometry" />
        </mxCell>
        <mxCell id="oz03-mQIutruv5uPioV6-19" value="State" style="text;strokeColor=none;fillColor=none;align=left;verticalAlign=middle;spacingLeft=4;spacingRight=4;overflow=hidden;points=[[0,0.5],[1,0.5]];portConstraint=eastwest;rotatable=0;whiteSpace=wrap;html=1;fontStyle=1;rounded=1;" parent="oz03-mQIutruv5uPioV6-14" vertex="1">
          <mxGeometry y="150" width="140" height="30" as="geometry" />
        </mxCell>
        <mxCell id="oz03-mQIutruv5uPioV6-20" value="zipCode" style="text;strokeColor=none;fillColor=none;align=left;verticalAlign=middle;spacingLeft=4;spacingRight=4;overflow=hidden;points=[[0,0.5],[1,0.5]];portConstraint=eastwest;rotatable=0;whiteSpace=wrap;html=1;fontStyle=1;rounded=1;" parent="oz03-mQIutruv5uPioV6-14" vertex="1">
          <mxGeometry y="180" width="140" height="30" as="geometry" />
        </mxCell>
        <mxCell id="oz03-mQIutruv5uPioV6-21" value="Product" style="swimlane;fontStyle=1;childLayout=stackLayout;horizontal=1;startSize=30;horizontalStack=0;resizeParent=1;resizeParentMax=0;resizeLast=0;collapsible=1;marginBottom=0;whiteSpace=wrap;html=1;rounded=1;" parent="1" vertex="1">
          <mxGeometry x="950" y="96" width="140" height="270" as="geometry" />
        </mxCell>
        <mxCell id="oz03-mQIutruv5uPioV6-22" value="id" style="text;strokeColor=none;fillColor=none;align=left;verticalAlign=middle;spacingLeft=4;spacingRight=4;overflow=hidden;points=[[0,0.5],[1,0.5]];portConstraint=eastwest;rotatable=0;whiteSpace=wrap;html=1;fontStyle=1;rounded=1;" parent="oz03-mQIutruv5uPioV6-21" vertex="1">
          <mxGeometry y="30" width="140" height="30" as="geometry" />
        </mxCell>
        <mxCell id="oz03-mQIutruv5uPioV6-23" value="categoryId" style="text;strokeColor=none;fillColor=none;align=left;verticalAlign=middle;spacingLeft=4;spacingRight=4;overflow=hidden;points=[[0,0.5],[1,0.5]];portConstraint=eastwest;rotatable=0;whiteSpace=wrap;html=1;fontStyle=1;rounded=1;" parent="oz03-mQIutruv5uPioV6-21" vertex="1">
          <mxGeometry y="60" width="140" height="30" as="geometry" />
        </mxCell>
        <mxCell id="oz03-mQIutruv5uPioV6-24" value="brand" style="text;strokeColor=none;fillColor=none;align=left;verticalAlign=middle;spacingLeft=4;spacingRight=4;overflow=hidden;points=[[0,0.5],[1,0.5]];portConstraint=eastwest;rotatable=0;whiteSpace=wrap;html=1;fontStyle=1;rounded=1;" parent="oz03-mQIutruv5uPioV6-21" vertex="1">
          <mxGeometry y="90" width="140" height="30" as="geometry" />
        </mxCell>
        <mxCell id="oz03-mQIutruv5uPioV6-25" value="model" style="text;strokeColor=none;fillColor=none;align=left;verticalAlign=middle;spacingLeft=4;spacingRight=4;overflow=hidden;points=[[0,0.5],[1,0.5]];portConstraint=eastwest;rotatable=0;whiteSpace=wrap;html=1;fontStyle=1;rounded=1;" parent="oz03-mQIutruv5uPioV6-21" vertex="1">
          <mxGeometry y="120" width="140" height="30" as="geometry" />
        </mxCell>
        <mxCell id="oz03-mQIutruv5uPioV6-26" value="description" style="text;strokeColor=none;fillColor=none;align=left;verticalAlign=middle;spacingLeft=4;spacingRight=4;overflow=hidden;points=[[0,0.5],[1,0.5]];portConstraint=eastwest;rotatable=0;whiteSpace=wrap;html=1;fontStyle=1;rounded=1;" parent="oz03-mQIutruv5uPioV6-21" vertex="1">
          <mxGeometry y="150" width="140" height="30" as="geometry" />
        </mxCell>
        <mxCell id="oz03-mQIutruv5uPioV6-27" value="year" style="text;strokeColor=none;fillColor=none;align=left;verticalAlign=middle;spacingLeft=4;spacingRight=4;overflow=hidden;points=[[0,0.5],[1,0.5]];portConstraint=eastwest;rotatable=0;whiteSpace=wrap;html=1;fontStyle=1;rounded=1;" parent="oz03-mQIutruv5uPioV6-21" vertex="1">
          <mxGeometry y="180" width="140" height="30" as="geometry" />
        </mxCell>
        <mxCell id="oz03-mQIutruv5uPioV6-28" value="price" style="text;strokeColor=none;fillColor=none;align=left;verticalAlign=middle;spacingLeft=4;spacingRight=4;overflow=hidden;points=[[0,0.5],[1,0.5]];portConstraint=eastwest;rotatable=0;whiteSpace=wrap;html=1;fontStyle=1;rounded=1;" parent="oz03-mQIutruv5uPioV6-21" vertex="1">
          <mxGeometry y="210" width="140" height="30" as="geometry" />
        </mxCell>
        <mxCell id="oz03-mQIutruv5uPioV6-29" value="inventoryId" style="text;strokeColor=none;fillColor=none;align=left;verticalAlign=middle;spacingLeft=4;spacingRight=4;overflow=hidden;points=[[0,0.5],[1,0.5]];portConstraint=eastwest;rotatable=0;whiteSpace=wrap;html=1;fontStyle=1;rounded=1;" parent="oz03-mQIutruv5uPioV6-21" vertex="1">
          <mxGeometry y="240" width="140" height="30" as="geometry" />
        </mxCell>
        <mxCell id="oz03-mQIutruv5uPioV6-30" value="Inventory" style="swimlane;fontStyle=1;childLayout=stackLayout;horizontal=1;startSize=30;horizontalStack=0;resizeParent=1;resizeParentMax=0;resizeLast=0;collapsible=1;marginBottom=0;whiteSpace=wrap;html=1;rounded=1;" parent="1" vertex="1">
          <mxGeometry x="1160" y="246" width="140" height="120" as="geometry" />
        </mxCell>
        <mxCell id="oz03-mQIutruv5uPioV6-31" value="id" style="text;strokeColor=none;fillColor=none;align=left;verticalAlign=middle;spacingLeft=4;spacingRight=4;overflow=hidden;points=[[0,0.5],[1,0.5]];portConstraint=eastwest;rotatable=0;whiteSpace=wrap;html=1;fontStyle=1;rounded=1;" parent="oz03-mQIutruv5uPioV6-30" vertex="1">
          <mxGeometry y="30" width="140" height="30" as="geometry" />
        </mxCell>
        <mxCell id="oz03-mQIutruv5uPioV6-32" value="productId" style="text;strokeColor=none;fillColor=none;align=left;verticalAlign=middle;spacingLeft=4;spacingRight=4;overflow=hidden;points=[[0,0.5],[1,0.5]];portConstraint=eastwest;rotatable=0;whiteSpace=wrap;html=1;fontStyle=1;rounded=1;" parent="oz03-mQIutruv5uPioV6-30" vertex="1">
          <mxGeometry y="60" width="140" height="30" as="geometry" />
        </mxCell>
        <mxCell id="oz03-mQIutruv5uPioV6-33" value="quantity" style="text;strokeColor=none;fillColor=none;align=left;verticalAlign=middle;spacingLeft=4;spacingRight=4;overflow=hidden;points=[[0,0.5],[1,0.5]];portConstraint=eastwest;rotatable=0;whiteSpace=wrap;html=1;fontStyle=1;rounded=1;" parent="oz03-mQIutruv5uPioV6-30" vertex="1">
          <mxGeometry y="90" width="140" height="30" as="geometry" />
        </mxCell>
        <mxCell id="oz03-mQIutruv5uPioV6-34" value="" style="edgeStyle=entityRelationEdgeStyle;fontSize=12;html=1;endArrow=ERoneToMany;startArrow=ERoneToMany;rounded=1;entryX=0;entryY=0.5;entryDx=0;entryDy=0;exitX=1;exitY=0.5;exitDx=0;exitDy=0;fontStyle=1" parent="1" source="oz03-mQIutruv5uPioV6-29" target="oz03-mQIutruv5uPioV6-31" edge="1">
          <mxGeometry width="100" height="100" relative="1" as="geometry">
            <mxPoint x="1050" y="176" as="sourcePoint" />
            <mxPoint x="1150" y="76" as="targetPoint" />
          </mxGeometry>
        </mxCell>
        <mxCell id="oz03-mQIutruv5uPioV6-35" value="Category" style="swimlane;fontStyle=1;childLayout=stackLayout;horizontal=1;startSize=30;horizontalStack=0;resizeParent=1;resizeParentMax=0;resizeLast=0;collapsible=1;marginBottom=0;whiteSpace=wrap;html=1;rounded=1;" parent="1" vertex="1">
          <mxGeometry x="1160" y="142" width="140" height="90" as="geometry" />
        </mxCell>
        <mxCell id="oz03-mQIutruv5uPioV6-36" value="id" style="text;strokeColor=none;fillColor=none;align=left;verticalAlign=middle;spacingLeft=4;spacingRight=4;overflow=hidden;points=[[0,0.5],[1,0.5]];portConstraint=eastwest;rotatable=0;whiteSpace=wrap;html=1;fontStyle=1;rounded=1;" parent="oz03-mQIutruv5uPioV6-35" vertex="1">
          <mxGeometry y="30" width="140" height="30" as="geometry" />
        </mxCell>
        <mxCell id="oz03-mQIutruv5uPioV6-37" value="name" style="text;strokeColor=none;fillColor=none;align=left;verticalAlign=middle;spacingLeft=4;spacingRight=4;overflow=hidden;points=[[0,0.5],[1,0.5]];portConstraint=eastwest;rotatable=0;whiteSpace=wrap;html=1;fontStyle=1;rounded=1;" parent="oz03-mQIutruv5uPioV6-35" vertex="1">
          <mxGeometry y="60" width="140" height="30" as="geometry" />
        </mxCell>
        <mxCell id="oz03-mQIutruv5uPioV6-38" value="" style="edgeStyle=entityRelationEdgeStyle;fontSize=12;html=1;endArrow=ERzeroToMany;startArrow=ERmandOne;rounded=1;entryX=1;entryY=0.5;entryDx=0;entryDy=0;exitX=0;exitY=0.5;exitDx=0;exitDy=0;fontStyle=1" parent="1" source="oz03-mQIutruv5uPioV6-36" target="oz03-mQIutruv5uPioV6-23" edge="1">
          <mxGeometry width="100" height="100" relative="1" as="geometry">
            <mxPoint x="620" y="231" as="sourcePoint" />
            <mxPoint x="950" y="171" as="targetPoint" />
            <Array as="points">
              <mxPoint x="680" y="256" />
              <mxPoint x="670" y="266" />
            </Array>
          </mxGeometry>
        </mxCell>
        <mxCell id="oz03-mQIutruv5uPioV6-39" value="Order" style="swimlane;fontStyle=1;childLayout=stackLayout;horizontal=1;startSize=30;horizontalStack=0;resizeParent=1;resizeParentMax=0;resizeLast=0;collapsible=1;marginBottom=0;whiteSpace=wrap;html=1;rounded=1;" parent="1" vertex="1">
          <mxGeometry x="370" y="470" width="140" height="240" as="geometry" />
        </mxCell>
        <mxCell id="oz03-mQIutruv5uPioV6-40" value="id" style="text;strokeColor=none;fillColor=none;align=left;verticalAlign=middle;spacingLeft=4;spacingRight=4;overflow=hidden;points=[[0,0.5],[1,0.5]];portConstraint=eastwest;rotatable=0;whiteSpace=wrap;html=1;fontStyle=1;rounded=1;" parent="oz03-mQIutruv5uPioV6-39" vertex="1">
          <mxGeometry y="30" width="140" height="30" as="geometry" />
        </mxCell>
        <mxCell id="oz03-mQIutruv5uPioV6-41" value="userId" style="text;strokeColor=none;fillColor=none;align=left;verticalAlign=middle;spacingLeft=4;spacingRight=4;overflow=hidden;points=[[0,0.5],[1,0.5]];portConstraint=eastwest;rotatable=0;whiteSpace=wrap;html=1;fontStyle=1;rounded=1;" parent="oz03-mQIutruv5uPioV6-39" vertex="1">
          <mxGeometry y="60" width="140" height="30" as="geometry" />
        </mxCell>
        <mxCell id="oz03-mQIutruv5uPioV6-42" value="addressId" style="text;strokeColor=none;fillColor=none;align=left;verticalAlign=middle;spacingLeft=4;spacingRight=4;overflow=hidden;points=[[0,0.5],[1,0.5]];portConstraint=eastwest;rotatable=0;whiteSpace=wrap;html=1;fontStyle=1;rounded=1;" parent="oz03-mQIutruv5uPioV6-39" vertex="1">
          <mxGeometry y="90" width="140" height="30" as="geometry" />
        </mxCell>
        <mxCell id="oz03-mQIutruv5uPioV6-43" value="productItemId" style="text;strokeColor=none;fillColor=none;align=left;verticalAlign=middle;spacingLeft=4;spacingRight=4;overflow=hidden;points=[[0,0.5],[1,0.5]];portConstraint=eastwest;rotatable=0;whiteSpace=wrap;html=1;fontStyle=1;rounded=1;" parent="oz03-mQIutruv5uPioV6-39" vertex="1">
          <mxGeometry y="120" width="140" height="30" as="geometry" />
        </mxCell>
        <mxCell id="oz03-mQIutruv5uPioV6-44" value="paymentId" style="text;strokeColor=none;fillColor=none;align=left;verticalAlign=middle;spacingLeft=4;spacingRight=4;overflow=hidden;points=[[0,0.5],[1,0.5]];portConstraint=eastwest;rotatable=0;whiteSpace=wrap;html=1;fontStyle=1;rounded=1;" parent="oz03-mQIutruv5uPioV6-39" vertex="1">
          <mxGeometry y="150" width="140" height="30" as="geometry" />
        </mxCell>
        <mxCell id="oz03-mQIutruv5uPioV6-45" value="createdAt" style="text;strokeColor=none;fillColor=none;align=left;verticalAlign=middle;spacingLeft=4;spacingRight=4;overflow=hidden;points=[[0,0.5],[1,0.5]];portConstraint=eastwest;rotatable=0;whiteSpace=wrap;html=1;fontStyle=1;rounded=1;" parent="oz03-mQIutruv5uPioV6-39" vertex="1">
          <mxGeometry y="180" width="140" height="30" as="geometry" />
        </mxCell>
        <mxCell id="oz03-mQIutruv5uPioV6-46" value="updatedAt" style="text;strokeColor=none;fillColor=none;align=left;verticalAlign=middle;spacingLeft=4;spacingRight=4;overflow=hidden;points=[[0,0.5],[1,0.5]];portConstraint=eastwest;rotatable=0;whiteSpace=wrap;html=1;fontStyle=1;rounded=1;" parent="oz03-mQIutruv5uPioV6-39" vertex="1">
          <mxGeometry y="210" width="140" height="30" as="geometry" />
        </mxCell>
        <mxCell id="oz03-mQIutruv5uPioV6-47" value="ProductItem" style="swimlane;fontStyle=1;childLayout=stackLayout;horizontal=1;startSize=30;horizontalStack=0;resizeParent=1;resizeParentMax=0;resizeLast=0;collapsible=1;marginBottom=0;whiteSpace=wrap;html=1;rounded=1;" parent="1" vertex="1">
          <mxGeometry x="580" y="600" width="140" height="180" as="geometry" />
        </mxCell>
        <mxCell id="oz03-mQIutruv5uPioV6-48" value="id" style="text;strokeColor=none;fillColor=none;align=left;verticalAlign=middle;spacingLeft=4;spacingRight=4;overflow=hidden;points=[[0,0.5],[1,0.5]];portConstraint=eastwest;rotatable=0;whiteSpace=wrap;html=1;fontStyle=1;rounded=1;" parent="oz03-mQIutruv5uPioV6-47" vertex="1">
          <mxGeometry y="30" width="140" height="30" as="geometry" />
        </mxCell>
        <mxCell id="oz03-mQIutruv5uPioV6-49" value="productId" style="text;strokeColor=none;fillColor=none;align=left;verticalAlign=middle;spacingLeft=4;spacingRight=4;overflow=hidden;points=[[0,0.5],[1,0.5]];portConstraint=eastwest;rotatable=0;whiteSpace=wrap;html=1;fontStyle=1;rounded=1;" parent="oz03-mQIutruv5uPioV6-47" vertex="1">
          <mxGeometry y="60" width="140" height="30" as="geometry" />
        </mxCell>
        <mxCell id="oz03-mQIutruv5uPioV6-50" value="quantity" style="text;strokeColor=none;fillColor=none;align=left;verticalAlign=middle;spacingLeft=4;spacingRight=4;overflow=hidden;points=[[0,0.5],[1,0.5]];portConstraint=eastwest;rotatable=0;whiteSpace=wrap;html=1;fontStyle=1;rounded=1;" parent="oz03-mQIutruv5uPioV6-47" vertex="1">
          <mxGeometry y="90" width="140" height="30" as="geometry" />
        </mxCell>
        <mxCell id="oz03-mQIutruv5uPioV6-51" value="orderId" style="text;strokeColor=none;fillColor=none;align=left;verticalAlign=middle;spacingLeft=4;spacingRight=4;overflow=hidden;points=[[0,0.5],[1,0.5]];portConstraint=eastwest;rotatable=0;whiteSpace=wrap;html=1;fontStyle=1;rounded=1;" parent="oz03-mQIutruv5uPioV6-47" vertex="1">
          <mxGeometry y="120" width="140" height="30" as="geometry" />
        </mxCell>
        <mxCell id="oz03-mQIutruv5uPioV6-52" value="cartId" style="text;strokeColor=none;fillColor=none;align=left;verticalAlign=middle;spacingLeft=4;spacingRight=4;overflow=hidden;points=[[0,0.5],[1,0.5]];portConstraint=eastwest;rotatable=0;whiteSpace=wrap;html=1;fontStyle=1;rounded=1;" parent="oz03-mQIutruv5uPioV6-47" vertex="1">
          <mxGeometry y="150" width="140" height="30" as="geometry" />
        </mxCell>
        <mxCell id="oz03-mQIutruv5uPioV6-53" value="" style="edgeStyle=entityRelationEdgeStyle;fontSize=12;html=1;endArrow=ERoneToMany;startArrow=ERzeroToOne;rounded=1;entryX=0;entryY=0.5;entryDx=0;entryDy=0;exitX=1;exitY=0.5;exitDx=0;exitDy=0;startFill=0;fontStyle=1" parent="1" source="oz03-mQIutruv5uPioV6-43" target="oz03-mQIutruv5uPioV6-51" edge="1">
          <mxGeometry width="100" height="100" relative="1" as="geometry">
            <mxPoint x="90" y="360" as="sourcePoint" />
            <mxPoint x="190" y="260" as="targetPoint" />
          </mxGeometry>
        </mxCell>
        <mxCell id="oz03-mQIutruv5uPioV6-54" value="" style="edgeStyle=orthogonalEdgeStyle;fontSize=12;html=1;endArrow=ERoneToMany;rounded=1;exitX=0;exitY=0.5;exitDx=0;exitDy=0;entryX=0;entryY=0.5;entryDx=0;entryDy=0;fontStyle=1" parent="1" source="oz03-mQIutruv5uPioV6-8" target="oz03-mQIutruv5uPioV6-41" edge="1">
          <mxGeometry width="100" height="100" relative="1" as="geometry">
            <mxPoint x="700" y="520" as="sourcePoint" />
            <mxPoint x="800" y="420" as="targetPoint" />
          </mxGeometry>
        </mxCell>
        <mxCell id="oz03-mQIutruv5uPioV6-55" value="" style="edgeStyle=orthogonalEdgeStyle;fontSize=12;html=1;endArrow=ERmandOne;startArrow=ERmandOne;rounded=1;exitX=1;exitY=0.5;exitDx=0;exitDy=0;entryX=1;entryY=0.5;entryDx=0;entryDy=0;fontStyle=1" parent="1" source="oz03-mQIutruv5uPioV6-15" target="oz03-mQIutruv5uPioV6-42" edge="1">
          <mxGeometry width="100" height="100" relative="1" as="geometry">
            <mxPoint x="580" y="520" as="sourcePoint" />
            <mxPoint x="680" y="420" as="targetPoint" />
          </mxGeometry>
        </mxCell>
        <mxCell id="oz03-mQIutruv5uPioV6-56" value="" style="edgeStyle=orthogonalEdgeStyle;fontSize=12;html=1;endArrow=ERmandOne;startArrow=ERmandOne;rounded=1;fontStyle=1" parent="1" source="oz03-mQIutruv5uPioV6-22" target="oz03-mQIutruv5uPioV6-49" edge="1">
          <mxGeometry width="100" height="100" relative="1" as="geometry">
            <mxPoint x="890" y="142" as="sourcePoint" />
            <mxPoint x="805" y="538" as="targetPoint" />
          </mxGeometry>
        </mxCell>
        <mxCell id="oz03-mQIutruv5uPioV6-57" value="Cart" style="swimlane;fontStyle=1;childLayout=stackLayout;horizontal=1;startSize=30;horizontalStack=0;resizeParent=1;resizeParentMax=0;resizeLast=0;collapsible=1;marginBottom=0;whiteSpace=wrap;html=1;rounded=1;" parent="1" vertex="1">
          <mxGeometry x="190" y="660" width="140" height="120" as="geometry" />
        </mxCell>
        <mxCell id="oz03-mQIutruv5uPioV6-58" value="id" style="text;strokeColor=none;fillColor=none;align=left;verticalAlign=middle;spacingLeft=4;spacingRight=4;overflow=hidden;points=[[0,0.5],[1,0.5]];portConstraint=eastwest;rotatable=0;whiteSpace=wrap;html=1;fontStyle=1;rounded=1;" parent="oz03-mQIutruv5uPioV6-57" vertex="1">
          <mxGeometry y="30" width="140" height="30" as="geometry" />
        </mxCell>
        <mxCell id="oz03-mQIutruv5uPioV6-59" value="userId" style="text;strokeColor=none;fillColor=none;align=left;verticalAlign=middle;spacingLeft=4;spacingRight=4;overflow=hidden;points=[[0,0.5],[1,0.5]];portConstraint=eastwest;rotatable=0;whiteSpace=wrap;html=1;fontStyle=1;rounded=1;" parent="oz03-mQIutruv5uPioV6-57" vertex="1">
          <mxGeometry y="60" width="140" height="30" as="geometry" />
        </mxCell>
        <mxCell id="oz03-mQIutruv5uPioV6-60" value="productItemId" style="text;strokeColor=none;fillColor=none;align=left;verticalAlign=middle;spacingLeft=4;spacingRight=4;overflow=hidden;points=[[0,0.5],[1,0.5]];portConstraint=eastwest;rotatable=0;whiteSpace=wrap;html=1;fontStyle=1;rounded=1;" parent="oz03-mQIutruv5uPioV6-57" vertex="1">
          <mxGeometry y="90" width="140" height="30" as="geometry" />
        </mxCell>
        <mxCell id="oz03-mQIutruv5uPioV6-61" value="" style="edgeStyle=orthogonalEdgeStyle;fontSize=12;html=1;endArrow=ERmandOne;startArrow=ERmandOne;rounded=1;entryX=0;entryY=0.5;entryDx=0;entryDy=0;exitX=-0.002;exitY=0.068;exitDx=0;exitDy=0;exitPerimeter=0;fontStyle=1" parent="1" source="oz03-mQIutruv5uPioV6-7" target="oz03-mQIutruv5uPioV6-59" edge="1">
          <mxGeometry width="100" height="100" relative="1" as="geometry">
            <mxPoint x="220" y="120" as="sourcePoint" />
            <mxPoint x="130" y="516" as="targetPoint" />
          </mxGeometry>
        </mxCell>
        <mxCell id="oz03-mQIutruv5uPioV6-62" value="" style="edgeStyle=entityRelationEdgeStyle;fontSize=12;html=1;endArrow=ERzeroToMany;startArrow=ERzeroToOne;rounded=1;exitX=1;exitY=0.5;exitDx=0;exitDy=0;fontStyle=1" parent="1" source="oz03-mQIutruv5uPioV6-60" edge="1">
          <mxGeometry width="100" height="100" relative="1" as="geometry">
            <mxPoint x="650" y="500" as="sourcePoint" />
            <mxPoint x="580" y="765" as="targetPoint" />
          </mxGeometry>
        </mxCell>
        <mxCell id="oz03-mQIutruv5uPioV6-63" value="Notification" style="swimlane;fontStyle=1;childLayout=stackLayout;horizontal=1;startSize=26;horizontalStack=0;resizeParent=1;resizeParentMax=0;resizeLast=0;collapsible=1;marginBottom=0;align=center;fontSize=14;rounded=1;" parent="1" vertex="1">
          <mxGeometry x="920" y="502" width="160" height="176" as="geometry" />
        </mxCell>
        <mxCell id="oz03-mQIutruv5uPioV6-64" value="id" style="text;strokeColor=none;fillColor=none;spacingLeft=4;spacingRight=4;overflow=hidden;rotatable=0;points=[[0,0.5],[1,0.5]];portConstraint=eastwest;fontSize=12;whiteSpace=wrap;html=1;fontStyle=1;rounded=1;" parent="oz03-mQIutruv5uPioV6-63" vertex="1">
          <mxGeometry y="26" width="160" height="30" as="geometry" />
        </mxCell>
        <mxCell id="oz03-mQIutruv5uPioV6-65" value="sender" style="text;strokeColor=none;fillColor=none;spacingLeft=4;spacingRight=4;overflow=hidden;rotatable=0;points=[[0,0.5],[1,0.5]];portConstraint=eastwest;fontSize=12;whiteSpace=wrap;html=1;fontStyle=1;rounded=1;" parent="oz03-mQIutruv5uPioV6-63" vertex="1">
          <mxGeometry y="56" width="160" height="30" as="geometry" />
        </mxCell>
        <mxCell id="oz03-mQIutruv5uPioV6-66" value="recepient" style="text;strokeColor=none;fillColor=none;spacingLeft=4;spacingRight=4;overflow=hidden;rotatable=0;points=[[0,0.5],[1,0.5]];portConstraint=eastwest;fontSize=12;whiteSpace=wrap;html=1;fontStyle=1;rounded=1;" parent="oz03-mQIutruv5uPioV6-63" vertex="1">
          <mxGeometry y="86" width="160" height="30" as="geometry" />
        </mxCell>
        <mxCell id="oz03-mQIutruv5uPioV6-67" value="contenteTemplateId" style="text;strokeColor=none;fillColor=none;spacingLeft=4;spacingRight=4;overflow=hidden;rotatable=0;points=[[0,0.5],[1,0.5]];portConstraint=eastwest;fontSize=12;whiteSpace=wrap;html=1;fontStyle=1;rounded=1;" parent="oz03-mQIutruv5uPioV6-63" vertex="1">
          <mxGeometry y="116" width="160" height="30" as="geometry" />
        </mxCell>
        <mxCell id="oz03-mQIutruv5uPioV6-68" value="date" style="text;strokeColor=none;fillColor=none;spacingLeft=4;spacingRight=4;overflow=hidden;rotatable=0;points=[[0,0.5],[1,0.5]];portConstraint=eastwest;fontSize=12;whiteSpace=wrap;html=1;fontStyle=1;rounded=1;" parent="oz03-mQIutruv5uPioV6-63" vertex="1">
          <mxGeometry y="146" width="160" height="30" as="geometry" />
        </mxCell>
        <mxCell id="oz03-mQIutruv5uPioV6-69" value="ContentTemplate" style="swimlane;fontStyle=1;childLayout=stackLayout;horizontal=1;startSize=26;horizontalStack=0;resizeParent=1;resizeParentMax=0;resizeLast=0;collapsible=1;marginBottom=0;align=center;fontSize=14;rounded=1;" parent="1" vertex="1">
          <mxGeometry x="1190" y="502" width="160" height="116" as="geometry" />
        </mxCell>
        <mxCell id="oz03-mQIutruv5uPioV6-70" value="id" style="text;strokeColor=none;fillColor=none;spacingLeft=4;spacingRight=4;overflow=hidden;rotatable=0;points=[[0,0.5],[1,0.5]];portConstraint=eastwest;fontSize=12;whiteSpace=wrap;html=1;fontStyle=1;rounded=1;" parent="oz03-mQIutruv5uPioV6-69" vertex="1">
          <mxGeometry y="26" width="160" height="30" as="geometry" />
        </mxCell>
        <mxCell id="oz03-mQIutruv5uPioV6-71" value="title" style="text;strokeColor=none;fillColor=none;spacingLeft=4;spacingRight=4;overflow=hidden;rotatable=0;points=[[0,0.5],[1,0.5]];portConstraint=eastwest;fontSize=12;whiteSpace=wrap;html=1;fontStyle=1;rounded=1;" parent="oz03-mQIutruv5uPioV6-69" vertex="1">
          <mxGeometry y="56" width="160" height="30" as="geometry" />
        </mxCell>
        <mxCell id="oz03-mQIutruv5uPioV6-72" value="content" style="text;strokeColor=none;fillColor=none;spacingLeft=4;spacingRight=4;overflow=hidden;rotatable=0;points=[[0,0.5],[1,0.5]];portConstraint=eastwest;fontSize=12;whiteSpace=wrap;html=1;fontStyle=1;rounded=1;" parent="oz03-mQIutruv5uPioV6-69" vertex="1">
          <mxGeometry y="86" width="160" height="30" as="geometry" />
        </mxCell>
        <mxCell id="oz03-mQIutruv5uPioV6-73" value="" style="edgeStyle=entityRelationEdgeStyle;fontSize=12;html=1;endArrow=ERoneToMany;rounded=1;exitX=0;exitY=0.5;exitDx=0;exitDy=0;entryX=1;entryY=0.5;entryDx=0;entryDy=0;fontStyle=1" parent="1" source="oz03-mQIutruv5uPioV6-70" target="oz03-mQIutruv5uPioV6-67" edge="1">
          <mxGeometry width="100" height="100" relative="1" as="geometry">
            <mxPoint x="900" y="594" as="sourcePoint" />
            <mxPoint x="1000" y="494" as="targetPoint" />
          </mxGeometry>
        </mxCell>
        <mxCell id="oz03-mQIutruv5uPioV6-74" value="Payment" style="swimlane;fontStyle=1;childLayout=stackLayout;horizontal=1;startSize=26;horizontalStack=0;resizeParent=1;resizeParentMax=0;resizeLast=0;collapsible=1;marginBottom=0;align=center;fontSize=14;rounded=1;" parent="1" vertex="1">
          <mxGeometry x="920" y="790" width="160" height="146" as="geometry" />
        </mxCell>
        <mxCell id="oz03-mQIutruv5uPioV6-75" value="id" style="text;strokeColor=none;fillColor=none;spacingLeft=4;spacingRight=4;overflow=hidden;rotatable=0;points=[[0,0.5],[1,0.5]];portConstraint=eastwest;fontSize=12;whiteSpace=wrap;html=1;fontStyle=1;rounded=1;" parent="oz03-mQIutruv5uPioV6-74" vertex="1">
          <mxGeometry y="26" width="160" height="30" as="geometry" />
        </mxCell>
        <mxCell id="oz03-mQIutruv5uPioV6-76" value="amount" style="text;strokeColor=none;fillColor=none;spacingLeft=4;spacingRight=4;overflow=hidden;rotatable=0;points=[[0,0.5],[1,0.5]];portConstraint=eastwest;fontSize=12;whiteSpace=wrap;html=1;fontStyle=1;rounded=1;" parent="oz03-mQIutruv5uPioV6-74" vertex="1">
          <mxGeometry y="56" width="160" height="30" as="geometry" />
        </mxCell>
        <mxCell id="oz03-mQIutruv5uPioV6-77" value="orderId" style="text;strokeColor=none;fillColor=none;spacingLeft=4;spacingRight=4;overflow=hidden;rotatable=0;points=[[0,0.5],[1,0.5]];portConstraint=eastwest;fontSize=12;whiteSpace=wrap;html=1;fontStyle=1;rounded=1;" parent="oz03-mQIutruv5uPioV6-74" vertex="1">
          <mxGeometry y="86" width="160" height="30" as="geometry" />
        </mxCell>
        <mxCell id="oz03-mQIutruv5uPioV6-78" value="status" style="text;strokeColor=none;fillColor=none;spacingLeft=4;spacingRight=4;overflow=hidden;rotatable=0;points=[[0,0.5],[1,0.5]];portConstraint=eastwest;fontSize=12;whiteSpace=wrap;html=1;fontStyle=1;rounded=1;" parent="oz03-mQIutruv5uPioV6-74" vertex="1">
          <mxGeometry y="116" width="160" height="30" as="geometry" />
        </mxCell>
        <mxCell id="oz03-mQIutruv5uPioV6-79" value="" style="edgeStyle=orthogonalEdgeStyle;fontSize=12;html=1;endArrow=ERmandOne;startArrow=ERmandOne;rounded=1;fontStyle=1;exitX=0;exitY=0.5;exitDx=0;exitDy=0;entryX=0;entryY=0.5;entryDx=0;entryDy=0;" parent="1" source="oz03-mQIutruv5uPioV6-44" target="oz03-mQIutruv5uPioV6-75" edge="1">
          <mxGeometry width="100" height="100" relative="1" as="geometry">
            <mxPoint x="640" y="850" as="sourcePoint" />
            <mxPoint x="410" y="1384" as="targetPoint" />
          </mxGeometry>
        </mxCell>
        <mxCell id="oz03-mQIutruv5uPioV6-80" value="Notifications" style="text;html=1;align=center;verticalAlign=middle;whiteSpace=wrap;rounded=1;fontStyle=1;fontColor=#06A800;" parent="1" vertex="1">
          <mxGeometry x="1090" y="460" width="60" height="30" as="geometry" />
        </mxCell>
        <mxCell id="oz03-mQIutruv5uPioV6-81" value="Orders" style="text;html=1;align=center;verticalAlign=middle;whiteSpace=wrap;rounded=1;fontStyle=1;fontColor=#06A800;" parent="1" vertex="1">
          <mxGeometry x="410" y="430" width="60" height="30" as="geometry" />
        </mxCell>
        <mxCell id="oz03-mQIutruv5uPioV6-82" value="Products" style="text;html=1;align=center;verticalAlign=middle;whiteSpace=wrap;rounded=1;fontStyle=1;fontColor=#06A800;" parent="1" vertex="1">
          <mxGeometry x="1090" y="50" width="60" height="30" as="geometry" />
        </mxCell>
        <mxCell id="oz03-mQIutruv5uPioV6-83" value="Users" style="text;html=1;align=center;verticalAlign=middle;whiteSpace=wrap;rounded=1;fontStyle=1;fontColor=#06A800;" parent="1" vertex="1">
          <mxGeometry x="360" y="80" width="60" height="30" as="geometry" />
        </mxCell>
        <mxCell id="oz03-mQIutruv5uPioV6-84" value="Payments" style="text;html=1;align=center;verticalAlign=middle;whiteSpace=wrap;rounded=1;fontStyle=1;fontColor=#06A800;" parent="1" vertex="1">
          <mxGeometry x="970" y="750" width="60" height="30" as="geometry" />
        </mxCell>
      </root>
    </mxGraphModel>
  </diagram>
  <diagram name="API-design" id="-r27QMWorGuA376pBGyW">
    <mxGraphModel dx="951" dy="682" grid="0" gridSize="10" guides="1" tooltips="1" connect="1" arrows="1" fold="1" page="1" pageScale="1" pageWidth="850" pageHeight="1100" background="none" math="0" shadow="0">
      <root>
        <mxCell id="0" />
        <mxCell id="1" parent="0" />
        <mxCell id="rvTHLQUg4wTfHztlVvKv-1" style="edgeStyle=orthogonalEdgeStyle;rounded=1;orthogonalLoop=1;jettySize=auto;html=1;entryX=0;entryY=0.5;entryDx=0;entryDy=0;" parent="1" source="rvTHLQUg4wTfHztlVvKv-4" target="rvTHLQUg4wTfHztlVvKv-6" edge="1">
          <mxGeometry relative="1" as="geometry" />
        </mxCell>
        <mxCell id="rvTHLQUg4wTfHztlVvKv-2" style="edgeStyle=orthogonalEdgeStyle;rounded=1;orthogonalLoop=1;jettySize=auto;html=1;entryX=0;entryY=0.5;entryDx=0;entryDy=0;" parent="1" source="rvTHLQUg4wTfHztlVvKv-4" target="rvTHLQUg4wTfHztlVvKv-11" edge="1">
          <mxGeometry relative="1" as="geometry" />
        </mxCell>
        <mxCell id="rvTHLQUg4wTfHztlVvKv-3" style="edgeStyle=orthogonalEdgeStyle;rounded=1;orthogonalLoop=1;jettySize=auto;html=1;entryX=0;entryY=0.5;entryDx=0;entryDy=0;" parent="1" source="rvTHLQUg4wTfHztlVvKv-4" target="rvTHLQUg4wTfHztlVvKv-17" edge="1">
          <mxGeometry relative="1" as="geometry" />
        </mxCell>
        <mxCell id="rvTHLQUg4wTfHztlVvKv-4" value="API Gateway" style="outlineConnect=0;fontColor=#232F3E;gradientColor=none;fillColor=#8C4FFF;strokeColor=none;dashed=0;verticalLabelPosition=bottom;verticalAlign=top;align=center;html=1;fontSize=12;fontStyle=0;aspect=fixed;pointerEvents=1;shape=mxgraph.aws4.gateway_load_balancer;rounded=1;" parent="1" vertex="1">
          <mxGeometry x="110" y="454" width="38" height="38" as="geometry" />
        </mxCell>
        <mxCell id="rvTHLQUg4wTfHztlVvKv-5" value="" style="edgeStyle=orthogonalEdgeStyle;rounded=1;orthogonalLoop=1;jettySize=auto;html=1;entryX=0;entryY=0.567;entryDx=0;entryDy=0;entryPerimeter=0;startArrow=classic;startFill=1;exitX=0.75;exitY=0;exitDx=0;exitDy=0;" parent="1" source="rvTHLQUg4wTfHztlVvKv-6" target="XcbmnClv6wn2zGGDWLNO-1" edge="1">
          <mxGeometry relative="1" as="geometry">
            <mxPoint x="430.70000000000005" y="227" as="targetPoint" />
          </mxGeometry>
        </mxCell>
        <mxCell id="rvTHLQUg4wTfHztlVvKv-6" value="customers" style="rounded=1;whiteSpace=wrap;html=1;labelPosition=center;verticalLabelPosition=middle;align=center;verticalAlign=middle;" parent="1" vertex="1">
          <mxGeometry x="240" y="274" width="150" height="50" as="geometry" />
        </mxCell>
        <mxCell id="rvTHLQUg4wTfHztlVvKv-7" value="" style="image;aspect=fixed;html=1;points=[];align=center;fontSize=12;image=img/lib/azure2/compute/Azure_Spring_Cloud.svg;rounded=1;" parent="1" vertex="1">
          <mxGeometry x="350" y="285" width="28" height="28" as="geometry" />
        </mxCell>
        <mxCell id="rvTHLQUg4wTfHztlVvKv-9" value="" style="edgeStyle=orthogonalEdgeStyle;rounded=1;orthogonalLoop=1;jettySize=auto;html=1;startArrow=classic;startFill=1;exitX=0.75;exitY=0;exitDx=0;exitDy=0;entryX=-0.015;entryY=0.422;entryDx=0;entryDy=0;entryPerimeter=0;" parent="1" source="rvTHLQUg4wTfHztlVvKv-11" target="rvTHLQUg4wTfHztlVvKv-13" edge="1">
          <mxGeometry relative="1" as="geometry">
            <mxPoint x="430" y="406" as="targetPoint" />
          </mxGeometry>
        </mxCell>
        <mxCell id="rvTHLQUg4wTfHztlVvKv-10" value="" style="edgeStyle=orthogonalEdgeStyle;rounded=1;orthogonalLoop=1;jettySize=auto;html=1;entryX=0.91;entryY=0;entryDx=0;entryDy=0;entryPerimeter=0;startArrow=classic;startFill=1;endArrow=none;endFill=0;" parent="1" source="rvTHLQUg4wTfHztlVvKv-11" target="rvTHLQUg4wTfHztlVvKv-20" edge="1">
          <mxGeometry relative="1" as="geometry">
            <Array as="points">
              <mxPoint x="790" y="416" />
              <mxPoint x="790" y="454" />
            </Array>
          </mxGeometry>
        </mxCell>
        <mxCell id="aiZG1zkIyrom1wIzOTJ3-7" value="order-placed" style="edgeLabel;html=1;align=center;verticalAlign=middle;resizable=0;points=[];fontSize=12;rounded=1;" parent="rvTHLQUg4wTfHztlVvKv-10" vertex="1" connectable="0">
          <mxGeometry x="-0.3075" y="1" relative="1" as="geometry">
            <mxPoint as="offset" />
          </mxGeometry>
        </mxCell>
        <mxCell id="aiZG1zkIyrom1wIzOTJ3-2" style="edgeStyle=orthogonalEdgeStyle;rounded=1;orthogonalLoop=1;jettySize=auto;html=1;exitX=0.75;exitY=0;exitDx=0;exitDy=0;startArrow=classic;startFill=1;" parent="1" source="rvTHLQUg4wTfHztlVvKv-11" target="aiZG1zkIyrom1wIzOTJ3-1" edge="1">
          <mxGeometry relative="1" as="geometry">
            <mxPoint x="582" y="204" as="targetPoint" />
            <Array as="points">
              <mxPoint x="353" y="360" />
              <mxPoint x="395" y="360" />
              <mxPoint x="395" y="317" />
              <mxPoint x="525" y="317" />
              <mxPoint x="525" y="235" />
            </Array>
          </mxGeometry>
        </mxCell>
        <mxCell id="XcbmnClv6wn2zGGDWLNO-3" style="edgeStyle=orthogonalEdgeStyle;rounded=1;orthogonalLoop=1;jettySize=auto;html=1;exitX=0.75;exitY=0;exitDx=0;exitDy=0;" edge="1" parent="1" source="rvTHLQUg4wTfHztlVvKv-11" target="XcbmnClv6wn2zGGDWLNO-4">
          <mxGeometry relative="1" as="geometry">
            <mxPoint x="619" y="300" as="targetPoint" />
            <Array as="points">
              <mxPoint x="353" y="360" />
              <mxPoint x="395" y="360" />
              <mxPoint x="395" y="338" />
              <mxPoint x="543" y="338" />
              <mxPoint x="543" y="300" />
            </Array>
          </mxGeometry>
        </mxCell>
        <mxCell id="rvTHLQUg4wTfHztlVvKv-11" value="products" style="rounded=1;whiteSpace=wrap;html=1;labelPosition=center;verticalLabelPosition=middle;align=center;verticalAlign=middle;" parent="1" vertex="1">
          <mxGeometry x="240" y="391" width="150" height="50" as="geometry" />
        </mxCell>
        <mxCell id="rvTHLQUg4wTfHztlVvKv-12" value="" style="image;aspect=fixed;html=1;points=[];align=center;fontSize=12;image=img/lib/azure2/compute/Azure_Spring_Cloud.svg;rounded=1;" parent="1" vertex="1">
          <mxGeometry x="350" y="402" width="28" height="28" as="geometry" />
        </mxCell>
        <mxCell id="rvTHLQUg4wTfHztlVvKv-13" value="" style="image;aspect=fixed;html=1;points=[];align=center;fontSize=12;image=img/lib/azure2/databases/Azure_Database_PostgreSQL_Server.svg;rounded=1;" parent="1" vertex="1">
          <mxGeometry x="597" y="350" width="39" height="52" as="geometry" />
        </mxCell>
        <mxCell id="rvTHLQUg4wTfHztlVvKv-14" value="" style="edgeStyle=orthogonalEdgeStyle;rounded=1;orthogonalLoop=1;jettySize=auto;html=1;startArrow=classic;startFill=1;exitX=0.75;exitY=1;exitDx=0;exitDy=0;" parent="1" source="rvTHLQUg4wTfHztlVvKv-17" target="rvTHLQUg4wTfHztlVvKv-19" edge="1">
          <mxGeometry relative="1" as="geometry">
            <mxPoint x="430" y="514" as="targetPoint" />
          </mxGeometry>
        </mxCell>
        <mxCell id="rvTHLQUg4wTfHztlVvKv-15" value="" style="edgeStyle=orthogonalEdgeStyle;rounded=1;orthogonalLoop=1;jettySize=auto;html=1;entryX=0.005;entryY=0.03;entryDx=0;entryDy=0;entryPerimeter=0;" parent="1" source="rvTHLQUg4wTfHztlVvKv-17" target="rvTHLQUg4wTfHztlVvKv-20" edge="1">
          <mxGeometry relative="1" as="geometry">
            <Array as="points">
              <mxPoint x="510" y="524" />
              <mxPoint x="510" y="455" />
            </Array>
          </mxGeometry>
        </mxCell>
        <mxCell id="rvTHLQUg4wTfHztlVvKv-16" value="order-placed" style="edgeLabel;html=1;align=center;verticalAlign=middle;resizable=0;points=[];rounded=1;" parent="rvTHLQUg4wTfHztlVvKv-15" vertex="1" connectable="0">
          <mxGeometry x="-0.4914" y="1" relative="1" as="geometry">
            <mxPoint as="offset" />
          </mxGeometry>
        </mxCell>
        <mxCell id="aiZG1zkIyrom1wIzOTJ3-3" style="edgeStyle=orthogonalEdgeStyle;rounded=1;orthogonalLoop=1;jettySize=auto;html=1;exitX=1;exitY=0.25;exitDx=0;exitDy=0;fontSize=12;startSize=8;endSize=8;entryX=0.778;entryY=0.02;entryDx=0;entryDy=0;entryPerimeter=0;endArrow=none;endFill=0;startArrow=classicThin;startFill=1;" parent="1" source="rvTHLQUg4wTfHztlVvKv-17" target="rvTHLQUg4wTfHztlVvKv-20" edge="1">
          <mxGeometry relative="1" as="geometry">
            <mxPoint x="680" y="440" as="targetPoint" />
          </mxGeometry>
        </mxCell>
        <mxCell id="aiZG1zkIyrom1wIzOTJ3-4" value="payment-status" style="edgeLabel;html=1;align=center;verticalAlign=middle;resizable=0;points=[];fontSize=12;rounded=1;" parent="aiZG1zkIyrom1wIzOTJ3-3" vertex="1" connectable="0">
          <mxGeometry x="-0.8153" y="1" relative="1" as="geometry">
            <mxPoint x="20" as="offset" />
          </mxGeometry>
        </mxCell>
        <mxCell id="rvTHLQUg4wTfHztlVvKv-17" value="orders" style="rounded=1;whiteSpace=wrap;html=1;labelPosition=center;verticalLabelPosition=middle;align=center;verticalAlign=middle;" parent="1" vertex="1">
          <mxGeometry x="240" y="499" width="150" height="50" as="geometry" />
        </mxCell>
        <mxCell id="rvTHLQUg4wTfHztlVvKv-18" value="" style="image;aspect=fixed;html=1;points=[];align=center;fontSize=12;image=img/lib/azure2/compute/Azure_Spring_Cloud.svg;rounded=1;" parent="1" vertex="1">
          <mxGeometry x="350" y="510" width="28" height="28" as="geometry" />
        </mxCell>
        <mxCell id="rvTHLQUg4wTfHztlVvKv-19" value="" style="image;aspect=fixed;html=1;points=[];align=center;fontSize=12;image=img/lib/azure2/databases/Azure_Database_PostgreSQL_Server.svg;rounded=1;" parent="1" vertex="1">
          <mxGeometry x="420" y="549" width="41.25" height="55" as="geometry" />
        </mxCell>
        <mxCell id="rvTHLQUg4wTfHztlVvKv-20" value="Kafka Event Streamer" style="aspect=fixed;pointerEvents=1;shadow=0;dashed=0;html=1;strokeColor=none;labelPosition=center;verticalLabelPosition=bottom;verticalAlign=top;align=center;fillColor=#00188D;shape=mxgraph.azure.queue_generic;rounded=1;" parent="1" vertex="1">
          <mxGeometry x="600" y="454" width="110" height="33" as="geometry" />
        </mxCell>
        <mxCell id="rvTHLQUg4wTfHztlVvKv-21" value="config" style="rounded=1;whiteSpace=wrap;html=1;labelPosition=center;verticalLabelPosition=middle;align=center;verticalAlign=middle;" parent="1" vertex="1">
          <mxGeometry x="23" y="268" width="150" height="50" as="geometry" />
        </mxCell>
        <mxCell id="rvTHLQUg4wTfHztlVvKv-22" value="" style="image;aspect=fixed;html=1;points=[];align=center;fontSize=12;image=img/lib/azure2/compute/Azure_Spring_Cloud.svg;rounded=1;" parent="1" vertex="1">
          <mxGeometry x="133" y="279" width="28" height="28" as="geometry" />
        </mxCell>
        <mxCell id="rvTHLQUg4wTfHztlVvKv-23" value="discovery" style="rounded=1;whiteSpace=wrap;html=1;labelPosition=center;verticalLabelPosition=middle;align=center;verticalAlign=middle;" parent="1" vertex="1">
          <mxGeometry x="23" y="338" width="150" height="50" as="geometry" />
        </mxCell>
        <mxCell id="rvTHLQUg4wTfHztlVvKv-24" value="" style="image;aspect=fixed;html=1;points=[];align=center;fontSize=12;image=img/lib/azure2/compute/Azure_Spring_Cloud.svg;rounded=1;" parent="1" vertex="1">
          <mxGeometry x="133" y="348" width="28" height="28" as="geometry" />
        </mxCell>
        <mxCell id="rvTHLQUg4wTfHztlVvKv-25" value="" style="edgeStyle=orthogonalEdgeStyle;rounded=1;orthogonalLoop=1;jettySize=auto;html=1;exitX=0.75;exitY=1;exitDx=0;exitDy=0;startArrow=classic;startFill=1;entryX=0;entryY=0.5;entryDx=0;entryDy=0;" parent="1" source="rvTHLQUg4wTfHztlVvKv-26" target="rvTHLQUg4wTfHztlVvKv-35" edge="1">
          <mxGeometry relative="1" as="geometry">
            <mxPoint x="461" y="670.5" as="targetPoint" />
          </mxGeometry>
        </mxCell>
        <mxCell id="rvTHLQUg4wTfHztlVvKv-26" value="payments" style="rounded=1;whiteSpace=wrap;html=1;labelPosition=center;verticalLabelPosition=middle;align=center;verticalAlign=middle;" parent="1" vertex="1">
          <mxGeometry x="240" y="607" width="150" height="50" as="geometry" />
        </mxCell>
        <mxCell id="rvTHLQUg4wTfHztlVvKv-27" value="" style="edgeStyle=orthogonalEdgeStyle;rounded=1;orthogonalLoop=1;jettySize=auto;html=1;entryX=0.91;entryY=1;entryDx=0;entryDy=0;entryPerimeter=0;startArrow=classic;startFill=1;endArrow=none;endFill=0;exitX=1;exitY=0.75;exitDx=0;exitDy=0;" parent="1" source="rvTHLQUg4wTfHztlVvKv-26" target="rvTHLQUg4wTfHztlVvKv-20" edge="1">
          <mxGeometry relative="1" as="geometry">
            <Array as="points">
              <mxPoint x="790" y="645" />
              <mxPoint x="790" y="487" />
            </Array>
            <mxPoint x="390" y="630" as="sourcePoint" />
            <mxPoint x="720" y="490" as="targetPoint" />
          </mxGeometry>
        </mxCell>
        <mxCell id="aiZG1zkIyrom1wIzOTJ3-6" value="order-placed" style="edgeLabel;html=1;align=center;verticalAlign=middle;resizable=0;points=[];fontSize=12;rounded=1;" parent="rvTHLQUg4wTfHztlVvKv-27" vertex="1" connectable="0">
          <mxGeometry x="-0.4184" y="-1" relative="1" as="geometry">
            <mxPoint x="-58" y="-2" as="offset" />
          </mxGeometry>
        </mxCell>
        <mxCell id="rvTHLQUg4wTfHztlVvKv-28" value="" style="image;aspect=fixed;html=1;points=[];align=center;fontSize=12;image=img/lib/azure2/compute/Azure_Spring_Cloud.svg;rounded=1;" parent="1" vertex="1">
          <mxGeometry x="350" y="618" width="28" height="28" as="geometry" />
        </mxCell>
        <mxCell id="rvTHLQUg4wTfHztlVvKv-29" style="edgeStyle=orthogonalEdgeStyle;rounded=1;orthogonalLoop=1;jettySize=auto;html=1;entryX=0.005;entryY=0.97;entryDx=0;entryDy=0;entryPerimeter=0;exitX=1;exitY=0.25;exitDx=0;exitDy=0;" parent="1" source="rvTHLQUg4wTfHztlVvKv-26" target="rvTHLQUg4wTfHztlVvKv-20" edge="1">
          <mxGeometry relative="1" as="geometry">
            <Array as="points">
              <mxPoint x="520" y="620" />
              <mxPoint x="520" y="486" />
            </Array>
            <mxPoint x="600" y="473" as="targetPoint" />
          </mxGeometry>
        </mxCell>
        <mxCell id="rvTHLQUg4wTfHztlVvKv-30" value="payment status" style="edgeLabel;html=1;align=center;verticalAlign=middle;resizable=0;points=[];rounded=1;" parent="rvTHLQUg4wTfHztlVvKv-29" vertex="1" connectable="0">
          <mxGeometry x="0.2381" y="-1" relative="1" as="geometry">
            <mxPoint x="-60" y="82" as="offset" />
          </mxGeometry>
        </mxCell>
        <mxCell id="rvTHLQUg4wTfHztlVvKv-31" value="notifications" style="rounded=1;whiteSpace=wrap;html=1;labelPosition=center;verticalLabelPosition=middle;align=center;verticalAlign=middle;" parent="1" vertex="1">
          <mxGeometry x="240" y="739" width="150" height="50" as="geometry" />
        </mxCell>
        <mxCell id="rvTHLQUg4wTfHztlVvKv-32" value="" style="image;aspect=fixed;html=1;points=[];align=center;fontSize=12;image=img/lib/azure2/compute/Azure_Spring_Cloud.svg;rounded=1;" parent="1" vertex="1">
          <mxGeometry x="350" y="750" width="28" height="28" as="geometry" />
        </mxCell>
        <mxCell id="rvTHLQUg4wTfHztlVvKv-33" style="edgeStyle=orthogonalEdgeStyle;rounded=1;orthogonalLoop=1;jettySize=auto;html=1;startArrow=classic;startFill=1;endArrow=none;endFill=0;exitX=1;exitY=0.5;exitDx=0;exitDy=0;" parent="1" source="rvTHLQUg4wTfHztlVvKv-31" edge="1">
          <mxGeometry relative="1" as="geometry">
            <Array as="points">
              <mxPoint x="790" y="764" />
              <mxPoint x="790" y="470" />
            </Array>
            <mxPoint x="710" y="470" as="targetPoint" />
          </mxGeometry>
        </mxCell>
        <mxCell id="aiZG1zkIyrom1wIzOTJ3-5" value="purchase-details" style="edgeLabel;html=1;align=center;verticalAlign=middle;resizable=0;points=[];fontSize=12;rounded=1;" parent="rvTHLQUg4wTfHztlVvKv-33" vertex="1" connectable="0">
          <mxGeometry x="-0.4923" y="1" relative="1" as="geometry">
            <mxPoint as="offset" />
          </mxGeometry>
        </mxCell>
        <mxCell id="rvTHLQUg4wTfHztlVvKv-35" value="Stripe Payment System" style="shape=image;html=1;verticalAlign=top;verticalLabelPosition=bottom;labelBackgroundColor=#ffffff;imageAspect=0;aspect=fixed;image=https://cdn2.iconfinder.com/data/icons/boxicons-logos/24/bxl-stripe-128.png;imageBackground=#7f5cff;imageBorder=default;rounded=1;" parent="1" vertex="1">
          <mxGeometry x="515" y="671" width="48.7" height="48.7" as="geometry" />
        </mxCell>
        <mxCell id="rvTHLQUg4wTfHztlVvKv-37" value="SMPT" style="verticalLabelPosition=bottom;html=1;verticalAlign=top;align=center;strokeColor=none;fillColor=#00BEF2;shape=mxgraph.azure.message;pointerEvents=1;rounded=1;" parent="1" vertex="1">
          <mxGeometry x="425.11" y="790" width="48.59" height="36.5" as="geometry" />
        </mxCell>
        <mxCell id="rvTHLQUg4wTfHztlVvKv-38" style="edgeStyle=orthogonalEdgeStyle;rounded=1;orthogonalLoop=1;jettySize=auto;html=1;entryX=0;entryY=0.5;entryDx=0;entryDy=0;entryPerimeter=0;exitX=0.75;exitY=1;exitDx=0;exitDy=0;startArrow=none;startFill=0;" parent="1" source="rvTHLQUg4wTfHztlVvKv-31" target="rvTHLQUg4wTfHztlVvKv-37" edge="1">
          <mxGeometry relative="1" as="geometry">
            <mxPoint x="400" y="739" as="sourcePoint" />
          </mxGeometry>
        </mxCell>
        <mxCell id="aiZG1zkIyrom1wIzOTJ3-1" value="Redis" style="image;aspect=fixed;html=1;points=[];align=center;fontSize=12;image=img/lib/mscae/Cache_Redis_Product.svg;rounded=1;" parent="1" vertex="1">
          <mxGeometry x="591.5" y="210" width="50" height="42" as="geometry" />
        </mxCell>
        <mxCell id="XcbmnClv6wn2zGGDWLNO-1" value="" style="image;aspect=fixed;html=1;points=[];align=center;fontSize=12;image=img/lib/azure2/databases/Azure_Database_PostgreSQL_Server.svg;rounded=1;" vertex="1" parent="1">
          <mxGeometry x="450" y="195" width="39" height="52" as="geometry" />
        </mxCell>
        <mxCell id="XcbmnClv6wn2zGGDWLNO-4" value="AWS S3" style="sketch=0;pointerEvents=1;shadow=0;dashed=0;html=1;strokeColor=none;fillColor=#DF8C42;labelPosition=center;verticalLabelPosition=bottom;verticalAlign=top;align=center;outlineConnect=0;shape=mxgraph.veeam2.aws_s3;rounded=1;" vertex="1" parent="1">
          <mxGeometry x="591.5" y="274" width="49" height="49" as="geometry" />
        </mxCell>
      </root>
    </mxGraphModel>
  </diagram>
</mxfile>
